<svg width="32" height="32" viewBox="0 0 32 32" fill="none" xmlns="http://www.w3.org/2000/svg">
<g clip-path="url(#clip0_61_21061)">
<rect width="32" height="32" rx="6.45378" fill="white"/>
<rect width="32.2689" height="32.2689" transform="translate(0 -0.186523)" fill="url(#paint0_linear_61_21061)"/>
<path d="M16.1727 6.36963C20.1044 6.36973 23.2917 9.55702 23.2918 13.4888C23.2918 16.1996 21.7763 18.5558 19.5467 19.7583C21.9104 20.5637 23.8873 22.1854 25.1658 24.2964C25.3677 24.6298 25.2618 25.0641 24.9285 25.2661C24.5951 25.468 24.1608 25.3612 23.9588 25.0278C22.3466 22.3658 19.4646 20.6081 16.1326 20.6079C12.8005 20.6079 9.91776 22.3657 8.30548 25.0278C8.10349 25.3612 7.66917 25.468 7.33576 25.2661C7.00248 25.0641 6.89654 24.6298 7.09845 24.2964C8.38594 22.1706 10.3817 20.5412 12.7674 19.7417C10.5547 18.5342 9.05353 16.1871 9.05353 13.4888C9.05363 9.55696 12.2408 6.36963 16.1727 6.36963ZM16.1727 7.78174C13.0205 7.78174 10.4648 10.3367 10.4647 13.4888C10.4647 16.641 13.0205 19.1968 16.1727 19.1968C19.3248 19.1967 21.8797 16.6409 21.8797 13.4888C21.8796 10.3367 19.3247 7.78184 16.1727 7.78174Z" fill="white"/>
<path fill-rule="evenodd" clip-rule="evenodd" d="M12.8243 14.8365C13.1273 14.5912 13.5718 14.638 13.817 14.941C14.3755 15.6308 15.186 16.0507 16.1323 16.0507C17.0786 16.0507 17.8891 15.6308 18.4475 14.941C18.6928 14.638 19.1373 14.5912 19.4403 14.8365C19.7433 15.0818 19.7901 15.5262 19.5448 15.8292C18.7318 16.8336 17.5255 17.4624 16.1323 17.4624C14.7391 17.4624 13.5328 16.8336 12.7198 15.8292C12.4745 15.5262 12.5213 15.0818 12.8243 14.8365Z" fill="white"/>
</g>
<defs>
<linearGradient id="paint0_linear_61_21061" x1="16.1345" y1="0" x2="16.1345" y2="32.2689" gradientUnits="userSpaceOnUse">
<stop stop-color="#FF6E30"/>
<stop offset="0.572917" stop-color="#FF4C00"/>
<stop offset="1" stop-color="#E94600"/>
</linearGradient>
<clipPath id="clip0_61_21061">
<rect width="32" height="32" rx="6.45378" fill="white"/>
</clipPath>
</defs>
</svg>
